<?xml version="1.0" encoding="UTF-8" standalone="no"?>
<!-- Created with Inkscape (http://www.inkscape.org/) -->

<svg
   xmlns:dc="http://purl.org/dc/elements/1.1/"
   xmlns:cc="http://creativecommons.org/ns#"
   xmlns:rdf="http://www.w3.org/1999/02/22-rdf-syntax-ns#"
   xmlns:svg="http://www.w3.org/2000/svg"
   xmlns="http://www.w3.org/2000/svg"
   xmlns:sodipodi="http://sodipodi.sourceforge.net/DTD/sodipodi-0.dtd"
   xmlns:inkscape="http://www.inkscape.org/namespaces/inkscape"
   width="64"
   height="64"
   viewBox="0 0 16.933333 16.933334"
   version="1.1"
   id="svg8"
   inkscape:version="0.92.4 (5da689c313, 2019-01-14)"
   sodipodi:docname="Logo Personal v2.0.svg">
  <defs
     id="defs2" />
  <sodipodi:namedview
     id="base"
     pagecolor="#ffffff"
     bordercolor="#666666"
     borderopacity="1.0"
     inkscape:pageopacity="0"
     inkscape:pageshadow="2"
     inkscape:zoom="8.53125"
     inkscape:cx="32"
     inkscape:cy="35.293676"
     inkscape:document-units="mm"
     inkscape:current-layer="g836"
     showgrid="false"
     units="px"
     inkscape:window-width="1366"
     inkscape:window-height="715"
     inkscape:window-x="-8"
     inkscape:window-y="-8"
     inkscape:window-maximized="1" />
  <metadata
     id="metadata5">
    <rdf:RDF>
      <cc:Work
         rdf:about="">
        <dc:format>image/svg+xml</dc:format>
        <dc:type
           rdf:resource="http://purl.org/dc/dcmitype/StillImage" />
        <dc:title></dc:title>
      </cc:Work>
    </rdf:RDF>
  </metadata>
  <g
     inkscape:label="Capa 1"
     inkscape:groupmode="layer"
     id="layer1"
     transform="translate(0,-280.06665)">
    <g
       id="g836">
      <g
         id="g903">
        <g
           id="g886">
          <ellipse
             transform="translate(0,5.8333334e-6)"
             style="opacity:1;fill:#ffffff;fill-opacity:1;fill-rule:nonzero;stroke:none;stroke-width:0.26458332"
             id="path10"
             cx="8.0324783"
             cy="288.71939"
             rx="7.1330891"
             ry="7.5362635" />
          <ellipse
             transform="translate(0,5.8333334e-6)"
             style="opacity:1;fill:#141821;fill-opacity:0;fill-rule:nonzero;stroke:none;stroke-width:0.26458332"
             id="path14"
             cx="8.4666662"
             cy="288.53333"
             rx="8.4666662"
             ry="8.4356527" />
          <path
             style="opacity:1;fill:#141821;fill-opacity:0;fill-rule:nonzero;stroke:none;stroke-width:0.11721612"
             d="M 27.862271,61.138051 C 22.702607,60.516552 18.465782,58.825089 14.447648,55.78255 13.139619,54.792108 10.898729,52.589597 9.7733225,51.188278 6.1564724,46.6847 4.0542048,41.407932 3.4689617,35.364103 3.3004247,33.623614 3.3972762,29.968687 3.6568805,28.272527 4.7219799,21.313559 8.1461414,15.010591 13.248146,10.617565 20.060522,4.7518434 28.927812,2.7701332 37.540591,5.1885579 43.38652,6.830065 48.838931,10.878826 52.44749,16.257875 c 4.99343,7.443387 6.280567,17.202994 3.411426,25.866839 -3.303771,9.976286 -11.392649,17.070337 -21.434176,18.79805 -1.070004,0.184102 -5.590267,0.332393 -6.562469,0.215287 z"
             id="path821"
             inkscape:connector-curvature="0"
             transform="matrix(0.26458333,0,0,0.26458333,0,280.06665)" />
          <path
             transform="translate(0,5.8333334e-6)"
             style="opacity:1;fill:#303030;fill-opacity:1;fill-rule:nonzero;stroke:none;stroke-width:0.03574367"
             d="m 7.6989103,296.98575 c -1.6171437,-0.18439 -2.9450507,-0.68623 -4.2044157,-1.5889 -0.4099629,-0.29386 -1.1123034,-0.94731 -1.4650287,-1.36306 -1.13359429,-1.33615 -1.79248775,-2.90169 -1.97591489,-4.6948 -0.0528228232,-0.51638 -0.02246794,-1.60075 0.05889736,-2.10397 0.33382389,-2.06463 1.40702563,-3.93462 3.00609773,-5.23797 2.1351372,-1.74028 4.9143262,-2.32822 7.6137469,-1.61071 1.832233,0.48702 3.541129,1.68822 4.672125,3.28411 1.565043,2.20834 1.968458,5.10388 1.06921,7.67431 -1.03547,2.95982 -3.570688,5.06452 -6.7179067,5.57711 -0.335361,0.0546 -1.7521033,0.0986 -2.0568112,0.0639 z"
             id="path823"
             inkscape:connector-curvature="0" />
          <path
             transform="matrix(0.26458333,0,0,0.26458333,0,280.06665)"
             inkscape:connector-curvature="0"
             id="path25"
             d="m 28.942279,63.950827 c -0.03301,-0.03302 -0.236776,-0.07877 -0.452802,-0.101676 -0.216026,-0.02291 -0.577389,-0.0725 -0.80303,-0.110216 -0.225641,-0.03771 -0.568498,-0.08992 -0.761905,-0.116015 -0.193406,-0.02609 -0.615384,-0.105796 -0.937729,-0.177115 -0.322344,-0.07132 -0.797069,-0.157215 -1.054945,-0.190879 -0.257875,-0.03366 -0.864469,-0.186419 -1.347985,-0.339458 -1.677093,-0.530816 -2.286163,-0.704672 -2.373627,-0.677539 -0.04835,0.015 -0.08791,-0.02128 -0.08791,-0.08063 0,-0.05935 -0.171428,-0.143486 -0.380952,-0.186977 -0.364419,-0.07564 -1.307781,-0.471477 -1.992674,-0.836128 -0.177289,-0.09439 -0.322344,-0.13844 -0.322344,-0.09788 0,0.04056 -0.134345,-0.03193 -0.298545,-0.161092 -0.1642,-0.129159 -0.450664,-0.268247 -0.636589,-0.309083 -0.185925,-0.04083 -0.400896,-0.149976 -0.477713,-0.242536 -0.07682,-0.09256 -0.179313,-0.16829 -0.227768,-0.16829 -0.08869,0 -0.92893,-0.472062 -1.506268,-0.846252 -0.171046,-0.110859 -0.459773,-0.285569 -0.641615,-0.388243 -0.181842,-0.102673 -0.638419,-0.420761 -1.014616,-0.706861 -0.376197,-0.2861 -0.719097,-0.520182 -0.761999,-0.520182 -0.0429,0 -0.149209,-0.06593 -0.236235,-0.14652 C 12.538,57.466667 12.193016,57.16337 11.858395,56.87326 10.708813,55.876594 10.066541,55.290467 9.8803139,55.068099 9.4945727,54.607495 8.8112784,53.942857 8.7234861,53.942857 c -0.050141,0 -0.1814931,-0.105494 -0.2918931,-0.234432 -0.1103999,-0.128938 -0.1692915,-0.234432 -0.13087,-0.234432 0.038421,0 -0.080776,-0.145055 -0.2648836,-0.322345 C 7.6539648,52.783916 6.8209825,51.777115 6.6461538,51.471977 6.581685,51.359456 6.35623,51.078164 6.1451427,50.846884 5.9340555,50.615603 5.7981952,50.426374 5.8432308,50.426374 c 0.045036,0 -0.042001,-0.131869 -0.193414,-0.293041 -0.1514133,-0.161172 -0.2305342,-0.29304 -0.1758241,-0.29304 0.05471,0 -0.010096,-0.118681 -0.1440119,-0.263736 C 5.0209049,49.241773 3.774359,47.138941 3.774359,46.952335 c 0,-0.07707 -0.03956,-0.157707 -0.087912,-0.179197 C 3.5216969,46.699916 2.7906244,45.12822 2.1961521,43.569231 2.0240699,43.117949 1.8024796,42.55717 1.7037293,42.323056 1.6049792,42.088942 1.5161873,41.75931 1.5064142,41.590538 1.4966407,41.421767 1.4490842,41.283644 1.4007326,41.2836 c -0.048352,-4.6e-5 -0.087912,-0.114129 -0.087912,-0.253518 0,-0.139388 -0.074498,-0.521806 -0.1655502,-0.849817 -0.26893791,-0.968829 -0.4531152,-1.748508 -0.48699204,-2.061584 -0.0174399,-0.161172 -0.0427258,-0.29304 -0.0561911,-0.29304 -0.0134653,0 -0.0375182,-0.105494 -0.053451,-0.234432 -0.015933,-0.128938 -0.06708,-0.445421 -0.11366028,-0.703297 C 0.3903957,36.630037 0.3347225,36.234432 0.31325774,36.008791 0.29179298,35.78315 0.23725551,35.229304 0.19206336,34.778022 0.039663,33.256175 0.12185194,29.158802 0.33237659,27.782972 c 0.0327855,-0.21426 0.0805827,-0.547807 0.10621598,-0.741214 0.12421786,-0.937239 0.2746629,-1.69061 0.37738014,-1.889776 0.0624367,-0.121063 0.0892884,-0.287821 0.0596706,-0.370575 -0.0296178,-0.08275 -0.001075,-0.214621 0.0634286,-0.29304 0.0645036,-0.07842 0.14515769,-0.300821 0.17923139,-0.494228 0.08747,-0.49649 0.4972386,-1.858057 0.6387877,-2.122543 0.065281,-0.121979 0.1245247,-0.274526 0.1316531,-0.338995 0.033802,-0.305703 0.1487943,-0.627129 0.5451555,-1.52381 0.113989,-0.257875 0.2072792,-0.534798 0.2073116,-0.615384 3.23e-5,-0.08059 0.044015,-0.146521 0.097739,-0.146521 0.053724,0 0.09768,-0.07717 0.09768,-0.171494 0,-0.228017 1.6351724,-3.37132 1.934066,-3.717869 0.1289377,-0.149495 0.3010093,-0.420756 0.3823812,-0.602805 0.1555367,-0.347971 0.8445484,-1.282275 0.9949081,-1.349101 0.048352,-0.02149 0.087912,-0.106096 0.087912,-0.188012 0,-0.08192 0.1293495,-0.28851 0.2874434,-0.459097 0.1580938,-0.170586 0.2639371,-0.310156 0.2352075,-0.310156 -0.02873,0 0.049713,-0.118682 0.1743173,-0.263737 C 8.3512365,10.533455 8.7691185,10.061661 8.9710429,9.8834852 9.0892924,9.7791434 9.2951655,9.6014652 9.4285386,9.4886447 9.5619118,9.3758242 9.6365908,9.2835165 9.594492,9.2835165 c -0.042099,0 0.028951,-0.1054945 0.157889,-0.2344323 0.1289377,-0.1289377 0.263104,-0.2344322 0.298147,-0.2344322 0.0808,0 0.93597,-0.7768707 1.322566,-1.2014652 0.161422,-0.1772894 0.334807,-0.3223443 0.385298,-0.3223443 0.05049,0 0.239573,-0.1384233 0.420184,-0.3076073 0.180612,-0.169184 0.535229,-0.439291 0.788041,-0.6002379 0.252812,-0.1609467 0.565407,-0.391151 0.694657,-0.5115649 0.129249,-0.1204139 0.331194,-0.2494657 0.448767,-0.286782 0.117573,-0.037316 0.213769,-0.1170403 0.213769,-0.1771647 0,-0.060124 0.07266,-0.1093172 0.161472,-0.1093172 0.08881,0 0.228194,-0.080396 0.309743,-0.1786568 0.08155,-0.098261 0.174508,-0.1524206 0.206575,-0.120354 0.03207,0.032066 0.248726,-0.091484 0.481465,-0.2745574 0.232739,-0.1830732 0.541843,-0.3698311 0.686898,-0.4150175 0.145055,-0.045187 0.263737,-0.13135 0.263737,-0.1914744 0,-0.060124 0.101099,-0.1093172 0.224664,-0.1093172 0.123565,0 0.242246,-0.045558 0.263737,-0.1012399 0.03888,-0.1007429 1.734796,-0.9268921 2.852258,-1.3894498 1.376479,-0.5697747 1.526682,-0.6272607 1.582418,-0.6056244 0.03223,0.012513 0.230036,-0.065897 0.43956,-0.1742465 0.209524,-0.1083489 0.380952,-0.1719614 0.380952,-0.1413611 0,0.0306 0.184616,-0.0215 0.410257,-0.115779 0.225641,-0.094279 0.410256,-0.1424787 0.410256,-0.1071108 0,0.035368 0.09733,0.012213 0.216299,-0.051454 0.203296,-0.1088007 0.368834,-0.1525685 1.160991,-0.3069633 0.177289,-0.0345545 0.506959,-0.12233204 0.7326,-0.19506122 0.225641,-0.0727292 0.515751,-0.14152004 0.644689,-0.15286859 0.128938,-0.0113485 0.419048,-0.0565262 0.644689,-0.10039481 0.225641,-0.0438686 0.647619,-0.10542729 0.937729,-0.13679713 0.290109,-0.0313698 0.685714,-0.0782316 0.87912,-0.1041373 1.273408,-0.1705655 1.968979,-0.2097979 3.6337,-0.20495198 1.924678,0.005603 3.32058,0.0727899 4.043956,0.19464276 0.225641,0.0380093 0.594872,0.0879411 0.820513,0.11095965 0.225641,0.0230185 0.700366,0.10164952 1.054945,0.17473563 0.354579,0.0730861 0.829304,0.15991047 1.054945,0.19294304 0.225641,0.0330326 0.542125,0.1048904 0.703297,0.15968407 0.161172,0.0547937 0.662271,0.19141318 1.113553,0.30359898 1.524317,0.3789353 2.792232,0.83301 4.571428,1.6371531 0.322345,0.14569 0.704762,0.3011908 0.849817,0.3455575 0.145055,0.044367 0.263737,0.1329724 0.263737,0.1969016 0,0.063929 0.04824,0.08642 0.107204,0.049979 0.05896,-0.036441 0.124896,-0.026367 0.14652,0.022386 0.02162,0.048753 0.329426,0.2327431 0.684004,0.408866 0.837978,0.4162321 1.33832,0.7129743 1.387057,0.8226336 0.02149,0.048352 0.08212,0.087912 0.134742,0.087912 0.135043,0 1.332128,0.8157662 1.436114,0.9786545 0.04736,0.074194 0.08773,0.082151 0.08971,0.017683 0.0024,-0.077894 0.03248,-0.077795 0.08971,2.931e-4 0.114445,0.15617 1.377294,1.11326 1.468907,1.11326 0.03946,0 0.195398,0.1186814 0.346516,0.2637363 0.151119,0.1450549 0.47012,0.421978 0.708893,0.6153846 0.645755,0.5230632 3.114973,2.9858062 3.466967,3.4578752 0.168247,0.225642 0.372149,0.452438 0.453116,0.503993 0.08097,0.05156 0.147213,0.151002 0.147213,0.220992 0,0.06999 0.118682,0.247015 0.263736,0.393391 0.349368,0.352546 0.496285,0.542247 0.667009,0.86125 0.07807,0.145874 0.230261,0.358801 0.338201,0.47317 0.318191,0.33714 0.606512,0.70958 0.606512,0.783464 0,0.03781 0.29011,0.537742 0.644689,1.11096 0.354578,0.573219 0.644688,1.121902 0.644688,1.219293 0,0.09739 0.05275,0.177077 0.117216,0.177077 0.06447,0 0.117217,0.0538 0.117217,0.119545 0,0.06575 0.131868,0.328439 0.29304,0.583752 0.161172,0.255313 0.29304,0.510706 0.29304,0.567538 0,0.05683 0.168399,0.466673 0.37422,0.910754 0.205821,0.444083 0.381669,0.833796 0.390774,0.86603 0.0091,0.03223 0.07905,0.209683 0.155439,0.394331 0.248564,0.600854 0.807961,2.344583 0.963999,3.004937 0.08378,0.354578 0.188509,0.697436 0.23272,0.761904 0.04421,0.06447 0.121417,0.380953 0.17157,0.703297 0.102774,0.660548 0.115906,0.730914 0.273433,1.465202 0.06224,0.290109 0.146513,0.817582 0.187278,1.172161 0.04077,0.354579 0.102986,0.855677 0.138266,1.113553 0.303157,2.21591 0.181701,6.312491 -0.253693,8.556776 -0.08755,0.451282 -0.18916,1.005129 -0.225802,1.23077 -0.03664,0.225641 -0.172472,0.832234 -0.301843,1.347985 -0.129372,0.515751 -0.256797,1.025899 -0.283168,1.133662 -0.09998,0.408535 -0.689263,2.153494 -0.765113,2.265605 -0.04362,0.06447 -0.143862,0.342915 -0.222763,0.618768 -0.118945,0.415849 -0.858701,2.030475 -1.318131,2.877011 -0.0638,0.11755 -0.228961,0.434034 -0.367032,0.703297 -0.138071,0.269263 -0.281336,0.515943 -0.318367,0.548177 -0.03703,0.03224 -0.131855,0.190476 -0.210723,0.351649 -0.267628,0.546917 -0.604076,1.092455 -0.843742,1.368094 -0.131373,0.151093 -0.23886,0.314413 -0.23886,0.362932 0,0.04852 -0.131868,0.230433 -0.293041,0.404249 -0.161172,0.173818 -0.29304,0.369263 -0.29304,0.434322 0,0.06506 -0.156463,0.278351 -0.347698,0.47398 -0.191233,0.195629 -0.317637,0.35569 -0.280897,0.35569 0.06695,0 -0.315097,0.471154 -1.093052,1.347985 -0.923692,1.041093 -1.227079,1.347986 -1.332588,1.347986 -0.06083,0 -0.1106,0.05583 -0.1106,0.124065 0,0.06824 -0.246009,0.345159 -0.546687,0.615384 -0.300678,0.270227 -0.709869,0.649562 -0.909314,0.842968 -0.199445,0.193407 -0.63915,0.56029 -0.977123,0.815296 -0.337972,0.255005 -0.614495,0.493559 -0.614495,0.53012 0,0.03656 -0.184615,0.165897 -0.410256,0.287413 -0.225642,0.121516 -0.410257,0.265378 -0.410257,0.319695 0,0.05432 -0.05497,0.09876 -0.122164,0.09876 -0.11497,0 -0.247559,0.09172 -0.635436,0.439561 -0.08986,0.08059 -0.190021,0.14652 -0.222576,0.14652 -0.07283,0 -1.282915,0.735108 -1.364146,0.828697 -0.03224,0.03714 -0.137729,0.103928 -0.234432,0.148423 -0.163217,0.0751 -1.040156,0.55552 -1.582418,0.86691 -0.627583,0.360384 -2.557068,1.207342 -2.871795,1.260589 -0.03223,0.0055 -0.16424,0.06885 -0.293346,0.140886 -0.284745,0.158873 -2.556742,0.931324 -3.047313,1.036048 -0.193407,0.04129 -0.457143,0.09263 -0.586081,0.114096 -0.128938,0.02147 -0.234432,0.05015 -0.234432,0.06375 0,0.0136 -0.105495,0.03923 -0.234432,0.05696 -0.128938,0.01773 -0.603663,0.121662 -1.054945,0.230963 -1.179301,0.285625 -1.734312,0.369418 -3.106227,0.468963 -1.274977,0.09251 -6.292495,0.173754 -6.363216,0.103033 z"
             style="opacity:1;fill:#008060;fill-opacity:1;fill-rule:nonzero;stroke:none;stroke-width:0.11721612" />
          <g
             id="g866">
            <ellipse
               style="opacity:1;fill:#141821;fill-opacity:1;fill-rule:nonzero;stroke:none;stroke-width:0.4088906"
               id="path832"
               cx="8.5131874"
               cy="288.53333"
               rx="7.3036633"
               ry="7.1951165" />
            <g
               id="g856">
              <text
                 xml:space="preserve"
                 style="font-style:normal;font-variant:normal;font-weight:normal;font-stretch:normal;font-size:4.93888855px;line-height:1.25;font-family:'Segoe UI';-inkscape-font-specification:'Segoe UI';letter-spacing:0px;word-spacing:0px;fill:#008060;fill-opacity:1;stroke:none;stroke-width:0.26458332;"
                 x="3.6285717"
                 y="287.9751"
                 id="text840"><tspan
                   sodipodi:role="line"
                   id="tspan838"
                   x="3.6285717"
                   y="287.9751"
                   style="font-style:normal;font-variant:normal;font-weight:900;font-stretch:normal;font-size:6.3499999px;font-family:'Segoe UI';-inkscape-font-specification:'Segoe UI Heavy';stroke-width:0.26458332;fill:#008060;fill-opacity:1;">H</tspan></text>
              <text
                 xml:space="preserve"
                 style="font-style:normal;font-variant:normal;font-weight:normal;font-stretch:normal;font-size:4.93888855px;line-height:1.25;font-family:'Segoe UI';-inkscape-font-specification:'Segoe UI';letter-spacing:0px;word-spacing:0px;fill:#008060;fill-opacity:1;stroke:none;stroke-width:0.26458332"
                 x="7.0090351"
                 y="290.64221"
                 id="text844"><tspan
                   sodipodi:role="line"
                   id="tspan842"
                   x="7.0090351"
                   y="290.64221"
                   style="font-style:normal;font-variant:normal;font-weight:900;font-stretch:normal;font-size:6.3499999px;font-family:'Segoe UI';-inkscape-font-specification:'Segoe UI Heavy';fill:#008060;fill-opacity:1;stroke-width:0.26458332">J</tspan></text>
              <text
                 xml:space="preserve"
                 style="font-style:normal;font-variant:normal;font-weight:900;font-stretch:normal;font-size:6.3499999px;line-height:1.25;font-family:'Segoe UI';-inkscape-font-specification:'Segoe UI Heavy';letter-spacing:0px;word-spacing:0px;fill:#008060;fill-opacity:1;stroke:none;stroke-width:0.26458332"
                 x="9.5211239"
                 y="292.93723"
                 id="text848"><tspan
                   sodipodi:role="line"
                   id="tspan846"
                   x="9.5211239"
                   y="292.93723"
                   style="fill:#008060;fill-opacity:1;stroke-width:0.26458332">G</tspan></text>
            </g>
          </g>
        </g>
      </g>
    </g>
  </g>
</svg>
